# xmcd
#
# Track frame offsets:
#	150
#	18152
#	29381
#	44047
#	58683
#	73712
#	86780
#	99040
#	114695
#	134065
#	148519
#
# Disc length: 2208 seconds
#
# Revision: 2779039041
# Processed by: cddbd v1.5.2PL0 Copyright (c) Steve Scherf et al.
# Submitted via: EZCDAudioConverter 8.0.5.1
#
DISCID=9d089e0b
DTITLE=Eric Church - Desperate Man
DYEAR=2018
DGENRE=Country
TTITLE0=The Snake
TTITLE1=Hangin' Around
TTITLE2=Heart Like A Wheel
TTITLE3=Some Of It
TTITLE4=Monsters
TTITLE5=Hippie Radio
TTITLE6=Higher Wire
TTITLE7=Desperate Man
TTITLE8=Solid
TTITLE9=Jukebox And A Bar
TTITLE10=Drowning Man
EXTD=
EXTT0=
EXTT1=
EXTT2=
EXTT3=
EXTT4=
EXTT5=
EXTT6=
EXTT7=
EXTT8=
EXTT9=
EXTT10=
PLAYORDER=
